<?xml version="1.0" encoding="UTF-8" standalone="no"?>
<svg
   xmlns:dc="http://purl.org/dc/elements/1.1/"
   xmlns:cc="http://creativecommons.org/ns#"
   xmlns:rdf="http://www.w3.org/1999/02/22-rdf-syntax-ns#"
   xmlns:svg="http://www.w3.org/2000/svg"
   xmlns="http://www.w3.org/2000/svg"
   xmlns:sodipodi="http://sodipodi.sourceforge.net/DTD/sodipodi-0.dtd"
   xmlns:inkscape="http://www.inkscape.org/namespaces/inkscape"
   width="210mm"
   height="297mm"
   viewBox="0 0 210 297"
   version="1.1"
   id="svg8"
   inkscape:version="1.0.1 (3bc2e813f5, 2020-09-07)"
   sodipodi:docname="Switch.svg">
  <defs
     id="defs2" />
  <sodipodi:namedview
     id="base"
     pagecolor="#ffffff"
     bordercolor="#666666"
     borderopacity="1.0"
     inkscape:pageopacity="0.0"
     inkscape:pageshadow="2"
     inkscape:zoom="0.94316065"
     inkscape:cx="297.24735"
     inkscape:cy="912.44678"
     inkscape:document-units="mm"
     inkscape:current-layer="layer1"
     inkscape:document-rotation="0"
     showgrid="false"
     inkscape:window-width="1920"
     inkscape:window-height="1001"
     inkscape:window-x="-9"
     inkscape:window-y="-9"
     inkscape:window-maximized="1" />
  <metadata
     id="metadata5">
    <rdf:RDF>
      <cc:Work
         rdf:about="">
        <dc:format>image/svg+xml</dc:format>
        <dc:type
           rdf:resource="http://purl.org/dc/dcmitype/StillImage" />
        <dc:title></dc:title>
      </cc:Work>
    </rdf:RDF>
  </metadata>
  <g
     inkscape:label="Layer 1"
     inkscape:groupmode="layer"
     id="layer1">
    <g
       id="g1032"
       transform="translate(-0.28052839,-6.4521529)"
       inkscape:export-xdpi="96"
       inkscape:export-ydpi="96">
      <path
         id="path841"
         style="fill:#8c13fb;fill-opacity:1;stroke:none;stroke-width:11.3386;stroke-miterlimit:4;stroke-dasharray:none;stroke-opacity:1"
         d="m 385.31055,645.54102 h -240.3418 a 240.34091,240.34091 0 0 0 226.625,239.94921 240.34091,240.34091 0 0 0 13.7168,0.39063 z"
         transform="scale(0.26458333)" />
      <path
         id="path1020"
         style="fill:#ff0080;fill-opacity:1;stroke:none;stroke-width:11.3386;stroke-miterlimit:4;stroke-dasharray:none;stroke-opacity:1"
         d="m 385.31055,645.54102 v 240.33984 a 240.34091,240.34091 0 0 0 239.94922,-226.62109 240.34091,240.34091 0 0 0 0.39062,-13.71875 z"
         transform="scale(0.26458333)" />
      <path
         id="path1015"
         style="fill:#35e2f2;fill-opacity:1;stroke:none;stroke-width:11.3386;stroke-miterlimit:4;stroke-dasharray:none;stroke-opacity:1"
         d="m 385.31055,405.20117 a 240.34091,240.34091 0 0 0 -0.0879,0 240.34091,240.34091 0 0 0 -239.86133,226.62305 240.34091,240.34091 0 0 0 -0.39258,13.7168 h 240.3418 z"
         transform="scale(0.26458333)" />
      <path
         id="path1025"
         style="fill:#f6df0e;fill-opacity:1;stroke:none;stroke-width:11.3386;stroke-miterlimit:4;stroke-dasharray:none;stroke-opacity:1"
         d="M 385.31055,405.20117 V 645.54102 H 625.65039 A 240.34091,240.34091 0 0 0 399.02734,405.59375 240.34091,240.34091 0 0 0 385.31055,405.20117 Z"
         transform="scale(0.26458333)" />
    </g>
  </g>
</svg>
